# xmcd
#
# Track frame offsets: 
#        150
#        14913
#        28971
#        39750
#        51530
#        64366
#        78237
#        93909
#        107948
#        127923
#        139370
#
# Disc length: 2060 seconds
#
# Revision: 0
# Processed by: cddbd v1.5.2PL0 Copyright (c) Steve Scherf et al.
# Submitted via: ExactAudioCopyFreeDBPlugin 1.0
#
DISCID=9d080a0b
DTITLE=Pierre Perret - Les deux visages de Pierre Perret
DYEAR=2011
DGENRE=Variété française
TTITLE0=Les postières
TTITLE1=La rue perce-oreille
TTITLE2=La bibise d'accord
TTITLE3=Quand je suis malheureux
TTITLE4=Marie trompe-la-mort
TTITLE5=L'homme facile
TTITLE6=Tonton Cristobal
TTITLE7=Leila
TTITLE8=Marcel
TTITLE9=Belle rose
TTITLE10=Les seins
EXTD=Intégrale 1957 - 2011
EXTT0=
EXTT1=
EXTT2=
EXTT3=
EXTT4=
EXTT5=
EXTT6=
EXTT7=
EXTT8=
EXTT9=
EXTT10=
PLAYORDER=
